<svg width="65" height="64" viewBox="0 0 65 64" fill="none" xmlns="http://www.w3.org/2000/svg">
<g filter="url(#filter0_ddddd_337_2923)">
<rect x="4.5" y="0.5" width="56" height="55" fill="#070707" stroke="white"/>
<path d="M42.056 5.032L37.736 40H29.864L31.712 25.12H19.088L17.24 40H9.368L13.688 5.032H21.56L19.736 19.792H32.36L34.184 5.032H42.056Z" fill="white"/>
<path d="M46.208 37.68L44.504 27.696C44.376 27.072 44.232 26.336 44.072 25.488C43.928 24.624 43.784 23.696 43.64 22.704C43.256 23.712 42.872 24.648 42.488 25.512C42.12 26.36 41.8 27.104 41.528 27.744L37.424 37.68H46.208ZM56.6 51H50.552C49.88 51 49.352 50.848 48.968 50.544C48.6 50.224 48.344 49.808 48.2 49.296L47.12 43.008H35.24L32.648 49.296C32.424 49.728 32.064 50.12 31.568 50.472C31.088 50.824 30.536 51 29.912 51H23.768L40.472 16.032H48.488L56.6 51Z" fill="white"/>
</g>
<defs>
<filter id="filter0_ddddd_337_2923" x="0" y="0" width="65" height="64" filterUnits="userSpaceOnUse" color-interpolation-filters="sRGB">
<feFlood flood-opacity="0" result="BackgroundImageFix"/>
<feColorMatrix in="SourceAlpha" type="matrix" values="0 0 0 0 0 0 0 0 0 0 0 0 0 0 0 0 0 0 127 0" result="hardAlpha"/>
<feOffset dy="4"/>
<feGaussianBlur stdDeviation="2"/>
<feComposite in2="hardAlpha" operator="out"/>
<feColorMatrix type="matrix" values="0 0 0 0 0 0 0 0 0 0 0 0 0 0 0 0 0 0 0.25 0"/>
<feBlend mode="normal" in2="BackgroundImageFix" result="effect1_dropShadow_337_2923"/>
<feColorMatrix in="SourceAlpha" type="matrix" values="0 0 0 0 0 0 0 0 0 0 0 0 0 0 0 0 0 0 127 0" result="hardAlpha"/>
<feOffset dy="4"/>
<feGaussianBlur stdDeviation="2"/>
<feComposite in2="hardAlpha" operator="out"/>
<feColorMatrix type="matrix" values="0 0 0 0 0 0 0 0 0 0 0 0 0 0 0 0 0 0 0.25 0"/>
<feBlend mode="normal" in2="effect1_dropShadow_337_2923" result="effect2_dropShadow_337_2923"/>
<feColorMatrix in="SourceAlpha" type="matrix" values="0 0 0 0 0 0 0 0 0 0 0 0 0 0 0 0 0 0 127 0" result="hardAlpha"/>
<feOffset dy="4"/>
<feGaussianBlur stdDeviation="2"/>
<feComposite in2="hardAlpha" operator="out"/>
<feColorMatrix type="matrix" values="0 0 0 0 0 0 0 0 0 0 0 0 0 0 0 0 0 0 0.25 0"/>
<feBlend mode="normal" in2="effect2_dropShadow_337_2923" result="effect3_dropShadow_337_2923"/>
<feColorMatrix in="SourceAlpha" type="matrix" values="0 0 0 0 0 0 0 0 0 0 0 0 0 0 0 0 0 0 127 0" result="hardAlpha"/>
<feOffset dy="4"/>
<feGaussianBlur stdDeviation="2"/>
<feComposite in2="hardAlpha" operator="out"/>
<feColorMatrix type="matrix" values="0 0 0 0 0 0 0 0 0 0 0 0 0 0 0 0 0 0 0.25 0"/>
<feBlend mode="normal" in2="effect3_dropShadow_337_2923" result="effect4_dropShadow_337_2923"/>
<feColorMatrix in="SourceAlpha" type="matrix" values="0 0 0 0 0 0 0 0 0 0 0 0 0 0 0 0 0 0 127 0" result="hardAlpha"/>
<feOffset dy="4"/>
<feGaussianBlur stdDeviation="2"/>
<feComposite in2="hardAlpha" operator="out"/>
<feColorMatrix type="matrix" values="0 0 0 0 0 0 0 0 0 0 0 0 0 0 0 0 0 0 0.25 0"/>
<feBlend mode="normal" in2="effect4_dropShadow_337_2923" result="effect5_dropShadow_337_2923"/>
<feBlend mode="normal" in="SourceGraphic" in2="effect5_dropShadow_337_2923" result="shape"/>
</filter>
</defs>
</svg>
