<svg width="24" height="24" viewBox="0 0 24 24" fill="none" xmlns="http://www.w3.org/2000/svg">
<g clip-path="url(#clip0_14_2)">
<path d="M8.65404 7C9.11561 7 9.54252 7.03612 9.93258 7.14302C10.2865 7.20807 10.6244 7.34154 10.9272 7.53598C11.2118 7.71439 11.4249 7.96505 11.5665 8.28649C11.7088 8.60793 11.7796 9.0016 11.7796 9.42995C11.7796 9.93053 11.6734 10.3589 11.4249 10.6803C11.2118 11.0025 10.8565 11.2878 10.4303 11.5023C11.0342 11.6815 11.4957 12.0029 11.7796 12.4313C12.0642 12.8603 12.2419 13.3963 12.2419 14.0038C12.2419 14.5044 12.135 14.9327 11.9573 15.2903C11.7796 15.6479 11.4957 15.9693 11.1757 16.1838C10.8281 16.4138 10.4439 16.5828 10.0395 16.6837C9.61331 16.7913 9.18713 16.8628 8.76095 16.8628H4V7H8.65404ZM8.36944 11.0018C8.76022 11.0018 9.08022 10.8949 9.3287 10.7164C9.57719 10.538 9.6841 10.2159 9.6841 9.82291C9.6841 9.60837 9.64798 9.39384 9.57719 9.25153C9.5064 9.10851 9.39949 9.00088 9.25792 8.89398C9.11561 8.82246 8.97331 8.75095 8.79562 8.71556C8.61792 8.67944 8.44095 8.67944 8.22714 8.67944H6.16702V11.0025H8.37016L8.36944 11.0018ZM8.47634 15.2188C8.68943 15.2188 8.90252 15.1827 9.08022 15.1473C9.25963 15.1132 9.42931 15.0399 9.57719 14.9327C9.72194 14.8282 9.84303 14.6943 9.93258 14.5398C10.0034 14.3614 10.0749 14.1468 10.0749 13.8969C10.0749 13.3963 9.93258 13.0388 9.6487 12.7888C9.3641 12.5743 8.97331 12.4674 8.51174 12.4674H6.16702V15.2195L8.47634 15.2188ZM15.3328 15.1827C15.6167 15.4687 16.0429 15.6117 16.6113 15.6117C17.0021 15.6117 17.3575 15.5048 17.6414 15.3264C17.926 15.1119 18.1037 14.8973 18.1745 14.6828H19.9153C19.6307 15.5402 19.2045 16.1477 18.6368 16.5407C18.0676 16.8982 17.3929 17.1128 16.5759 17.1128C16.0532 17.1143 15.5349 17.0173 15.0482 16.8267C14.6102 16.6624 14.2197 16.3924 13.9112 16.0408C13.5813 15.7118 13.3375 15.3067 13.2012 14.8612C13.0235 14.3968 12.952 13.8969 12.952 13.3248C12.952 12.7888 13.0235 12.289 13.2012 11.8238C13.372 11.376 13.6248 10.964 13.9466 10.6088C14.2666 10.2874 14.6574 10.002 15.0836 9.82291C15.558 9.63225 16.0647 9.53512 16.5759 9.53686C17.1798 9.53686 17.7129 9.64449 18.1745 9.89442C18.6368 10.1443 18.9915 10.4304 19.2761 10.8595C19.5664 11.2716 19.7827 11.7311 19.9153 12.2175C19.9861 12.7173 20.0215 13.2179 19.9861 13.7893H14.8351C14.8351 14.3614 15.0482 14.8973 15.3328 15.1834V15.1827ZM17.5706 11.4308C17.3221 11.1809 16.9313 11.0379 16.469 11.0379C16.1498 11.0379 15.9006 11.1094 15.6875 11.2163C15.4744 11.3239 15.3328 11.467 15.1905 11.61C15.0597 11.7481 14.9732 11.9222 14.942 12.1098C14.9059 12.289 14.8705 12.4313 14.8705 12.5743H18.0676C17.9968 12.0383 17.8191 11.6815 17.5706 11.4308ZM14.4443 7.679H18.423V8.64405H14.445V7.679H14.4443Z" fill="black"/>
</g>
<rect x="0.5" y="0.5" width="23" height="23" rx="11.5" stroke="black"/>
<defs>
<clipPath id="clip0_14_2">
<rect width="24" height="24" rx="12" fill="white"/>
</clipPath>
</defs>
</svg>
