<svg width="24" height="24" viewBox="0 0 24 24" fill="none" xmlns="http://www.w3.org/2000/svg">
<path d="M19.0201 4.97522C17.631 3.58682 15.8615 2.64148 13.9352 2.25875C12.0089 1.87602 10.0124 2.07308 8.19814 2.82502C6.38385 3.57696 4.83328 4.85 3.74249 6.48317C2.65171 8.11634 2.0697 10.0363 2.07007 12.0002C2.07007 14.6343 3.1161 17.1605 4.97819 19.0236C6.84029 20.8866 9.36601 21.9339 12.0001 21.9352C13.3036 21.9358 14.5945 21.681 15.8001 21.1852C17.0018 20.678 18.0949 19.9447 19.0201 19.0252C19.9427 18.1027 20.6746 17.0076 21.1739 15.8022C21.6733 14.5968 21.9303 13.3049 21.9303 12.0002C21.9303 10.6955 21.6733 9.40361 21.1739 8.19825C20.6746 6.99289 19.9427 5.8977 19.0201 4.97522ZM18.3201 18.3152C16.8901 19.7513 15.0138 20.6577 13.0001 20.8852V14.3252H14.8801C15.1453 14.3252 15.3996 14.2199 15.5872 14.0323C15.7747 13.8448 15.8801 13.5904 15.8801 13.3252C15.8801 13.06 15.7747 12.8057 15.5872 12.6181C15.3996 12.4306 15.1453 12.3252 14.8801 12.3252H13.0001V9.58522C13.0001 9.32001 13.1054 9.06565 13.293 8.87812C13.4805 8.69058 13.7349 8.58522 14.0001 8.58522H15.2001C15.4653 8.58522 15.7196 8.47987 15.9072 8.29233C16.0947 8.10479 16.2001 7.85044 16.2001 7.58522C16.2001 7.32001 16.0947 7.06565 15.9072 6.87812C15.7196 6.69058 15.4653 6.58522 15.2001 6.58522H13.5001C12.837 6.58522 12.2011 6.84862 11.7323 7.31746C11.2635 7.7863 11.0001 8.42218 11.0001 9.08522V12.3252H9.13007C8.86485 12.3252 8.6105 12.4306 8.42296 12.6181C8.23543 12.8057 8.13007 13.06 8.13007 13.3252C8.13007 13.5904 8.23543 13.8448 8.42296 14.0323C8.6105 14.2199 8.86485 14.3252 9.13007 14.3252H11.0001V20.8852C9.14296 20.6734 7.39935 19.8834 6.01552 18.6269C4.63169 17.3704 3.67758 15.7109 3.28797 13.8828C2.89836 12.0547 3.09293 10.1504 3.8442 8.43888C4.59547 6.72735 5.86547 5.2951 7.47482 4.34444C9.08416 3.39378 10.9515 2.97276 12.8131 3.14084C14.6747 3.30892 16.4364 4.05762 17.8494 5.28117C19.2625 6.50472 20.2554 8.14128 20.6879 9.9597C21.1205 11.7781 20.9708 13.6865 20.2601 15.4152C19.8074 16.4984 19.1485 17.4834 18.3201 18.3152Z" fill="black"/>
</svg>
