<svg width="24" height="24" viewBox="0 0 24 24" fill="none" xmlns="http://www.w3.org/2000/svg">
<path d="M15.5 9C15.7762 9 16 8.77614 16 8.5C16 8.22386 15.7762 8 15.5 8C15.2239 8 15 8.22386 15 8.5C15 8.77614 15.2239 9 15.5 9Z" fill="#15C8AA"/>
<path d="M15.5 9C15.7762 9 16 8.77614 16 8.5C16 8.22386 15.7762 8 15.5 8C15.2239 8 15 8.22386 15 8.5C15 8.77614 15.2239 9 15.5 9Z" fill="black"/>
<path d="M12 9C10.3431 9 9 10.3432 9 12C9 13.6569 10.3432 15 12 15C13.6569 15 15 13.6569 15 12C15 10.3431 13.6569 9 12 9ZM12 13.9474C10.9245 13.9474 10.0526 13.0755 10.0526 12C10.0526 10.9245 10.9245 10.0526 12 10.0526C13.0755 10.0526 13.9474 10.9245 13.9474 12C13.9474 13.0755 13.0755 13.9474 12 13.9474Z" fill="#15C8AA"/>
<path d="M12 9C10.3431 9 9 10.3432 9 12C9 13.6569 10.3432 15 12 15C13.6569 15 15 13.6569 15 12C15 10.3431 13.6569 9 12 9ZM12 13.9474C10.9245 13.9474 10.0526 13.0755 10.0526 12C10.0526 10.9245 10.9245 10.0526 12 10.0526C13.0755 10.0526 13.9474 10.9245 13.9474 12C13.9474 13.0755 13.0755 13.9474 12 13.9474Z" fill="black"/>
<path d="M17.9639 9.52622C17.9347 8.88758 17.8334 8.45143 17.685 8.06977C17.5317 7.67522 17.3265 7.34061 16.993 7.00706C16.6594 6.67349 16.3248 6.46833 15.9302 6.315C15.5486 6.16667 15.1124 6.06526 14.4738 6.0361C13.8338 6.0069 13.6295 6 12 6C10.3705 6 10.1662 6.0069 9.52622 6.0361C8.88758 6.06526 8.45143 6.16667 8.06977 6.315C7.67524 6.46833 7.34061 6.67347 7.00706 7.00706C6.67349 7.34061 6.46833 7.67522 6.315 8.06977C6.16667 8.45142 6.06526 8.88758 6.0361 9.52622C6.0069 10.1662 6 10.3705 6 12C6 13.6295 6.0069 13.8338 6.0361 14.4738C6.06526 15.1124 6.16667 15.5486 6.315 15.9302C6.46833 16.3247 6.67347 16.6594 7.00706 16.993C7.34061 17.3265 7.67524 17.5317 8.06977 17.685C8.45143 17.8334 8.88758 17.9347 9.52622 17.9639C10.1662 17.9931 10.3705 18 12 18C13.6295 18 13.8338 17.9931 14.4738 17.9639C15.1124 17.9347 15.5486 17.8334 15.9302 17.685C16.3248 17.5317 16.6594 17.3265 16.993 16.993C17.3265 16.6594 17.5317 16.3248 17.685 15.9302C17.8334 15.5486 17.9347 15.1124 17.9639 14.4738C17.9931 13.8338 18 13.6295 18 12C18 10.3705 17.9931 10.1662 17.9639 9.52622ZM16.8839 14.4245C16.8573 15.0095 16.7595 15.3272 16.6774 15.5386C16.5685 15.8186 16.4385 16.0186 16.2286 16.2286C16.0186 16.4385 15.8186 16.5685 15.5386 16.6774C15.3272 16.7595 15.0095 16.8573 14.4245 16.8839C13.7919 16.9128 13.6022 16.9189 12 16.9189C10.3978 16.9189 10.2081 16.9128 9.57549 16.8839C8.99052 16.8573 8.67279 16.7595 8.46136 16.6774C8.1813 16.5685 7.98144 16.4385 7.77149 16.2286C7.56153 16.0186 7.43149 15.8186 7.32264 15.5386C7.24048 15.3272 7.14275 15.0095 7.11605 14.4245C7.08719 13.7918 7.08107 13.6021 7.08107 12C7.08107 10.3979 7.08718 10.2082 7.11605 9.57549C7.14275 8.99052 7.24048 8.67279 7.32264 8.46136C7.43147 8.1813 7.56151 7.98144 7.77146 7.77149C7.98143 7.56153 8.1813 7.43149 8.46136 7.32264C8.67279 7.24048 8.9905 7.14275 9.57549 7.11605C10.2082 7.08719 10.3979 7.08107 12 7.08107C13.6021 7.08107 13.7918 7.08718 14.4245 7.11605C15.0095 7.14275 15.3272 7.24048 15.5386 7.32264C15.8186 7.43147 16.0186 7.56151 16.2286 7.77146C16.4385 7.98143 16.5685 8.1813 16.6774 8.46136C16.7595 8.67279 16.8573 8.9905 16.8839 9.57549C16.9128 10.2082 16.9189 10.3979 16.9189 12C16.9189 13.6021 16.9128 13.7918 16.8839 14.4245Z" fill="#15C8AA"/>
<path d="M17.9639 9.52622C17.9347 8.88758 17.8334 8.45143 17.685 8.06977C17.5317 7.67522 17.3265 7.34061 16.993 7.00706C16.6594 6.67349 16.3248 6.46833 15.9302 6.315C15.5486 6.16667 15.1124 6.06526 14.4738 6.0361C13.8338 6.0069 13.6295 6 12 6C10.3705 6 10.1662 6.0069 9.52622 6.0361C8.88758 6.06526 8.45143 6.16667 8.06977 6.315C7.67524 6.46833 7.34061 6.67347 7.00706 7.00706C6.67349 7.34061 6.46833 7.67522 6.315 8.06977C6.16667 8.45142 6.06526 8.88758 6.0361 9.52622C6.0069 10.1662 6 10.3705 6 12C6 13.6295 6.0069 13.8338 6.0361 14.4738C6.06526 15.1124 6.16667 15.5486 6.315 15.9302C6.46833 16.3247 6.67347 16.6594 7.00706 16.993C7.34061 17.3265 7.67524 17.5317 8.06977 17.685C8.45143 17.8334 8.88758 17.9347 9.52622 17.9639C10.1662 17.9931 10.3705 18 12 18C13.6295 18 13.8338 17.9931 14.4738 17.9639C15.1124 17.9347 15.5486 17.8334 15.9302 17.685C16.3248 17.5317 16.6594 17.3265 16.993 16.993C17.3265 16.6594 17.5317 16.3248 17.685 15.9302C17.8334 15.5486 17.9347 15.1124 17.9639 14.4738C17.9931 13.8338 18 13.6295 18 12C18 10.3705 17.9931 10.1662 17.9639 9.52622ZM16.8839 14.4245C16.8573 15.0095 16.7595 15.3272 16.6774 15.5386C16.5685 15.8186 16.4385 16.0186 16.2286 16.2286C16.0186 16.4385 15.8186 16.5685 15.5386 16.6774C15.3272 16.7595 15.0095 16.8573 14.4245 16.8839C13.7919 16.9128 13.6022 16.9189 12 16.9189C10.3978 16.9189 10.2081 16.9128 9.57549 16.8839C8.99052 16.8573 8.67279 16.7595 8.46136 16.6774C8.1813 16.5685 7.98144 16.4385 7.77149 16.2286C7.56153 16.0186 7.43149 15.8186 7.32264 15.5386C7.24048 15.3272 7.14275 15.0095 7.11605 14.4245C7.08719 13.7918 7.08107 13.6021 7.08107 12C7.08107 10.3979 7.08718 10.2082 7.11605 9.57549C7.14275 8.99052 7.24048 8.67279 7.32264 8.46136C7.43147 8.1813 7.56151 7.98144 7.77146 7.77149C7.98143 7.56153 8.1813 7.43149 8.46136 7.32264C8.67279 7.24048 8.9905 7.14275 9.57549 7.11605C10.2082 7.08719 10.3979 7.08107 12 7.08107C13.6021 7.08107 13.7918 7.08718 14.4245 7.11605C15.0095 7.14275 15.3272 7.24048 15.5386 7.32264C15.8186 7.43147 16.0186 7.56151 16.2286 7.77146C16.4385 7.98143 16.5685 8.1813 16.6774 8.46136C16.7595 8.67279 16.8573 8.9905 16.8839 9.57549C16.9128 10.2082 16.9189 10.3979 16.9189 12C16.9189 13.6021 16.9128 13.7918 16.8839 14.4245Z" fill="black"/>
<rect x="0.5" y="0.5" width="23" height="23" rx="11.5" stroke="black"/>
</svg>
