<svg width="24" height="24" viewBox="0 0 24 24" fill="none" xmlns="http://www.w3.org/2000/svg">
<path d="M8.73749 7.29114C8.73749 8.01266 8.2125 8.58227 7.35 8.58227C6.525 8.58227 6 8.01266 6 7.29114C6 6.56963 6.525 6 7.35 6C8.2125 6 8.7 6.56963 8.73749 7.29114ZM6.075 18V9.64556H8.625V18H6.075ZM10.2 12.3038C10.2 11.2785 10.1625 10.405 10.125 9.64556H12.3375L12.45 10.8228H12.4875C12.825 10.2911 13.65 9.45568 15.0375 9.45568C16.725 9.45568 18 10.5949 18 13.0633V18H15.45V13.3671C15.45 12.3038 15.075 11.5443 14.1375 11.5443C13.425 11.5443 13.0125 12.038 12.825 12.5316C12.75 12.6835 12.75 12.9494 12.75 13.1772V18H10.2V12.3038Z" fill="black"/>
<rect x="0.5" y="0.5" width="23" height="23" rx="11.5" stroke="black"/>
</svg>
