<svg width="24" height="24" viewBox="0 0 24 24" fill="none" xmlns="http://www.w3.org/2000/svg">
<path d="M18 7.42529C17.5514 7.65517 17.1028 7.83908 16.5794 7.88506C17.1028 7.51724 17.4766 6.91953 17.6636 6.22988C17.1775 6.5977 16.6542 6.82759 16.0935 6.96552C15.6448 6.36782 15.0094 6 14.2991 6C12.9533 6 11.8318 7.33333 11.8318 9.03448C11.8318 9.26437 11.8692 9.49425 11.9065 9.72414C9.85047 9.5862 8.05607 8.3908 6.85981 6.55173C6.63551 7.01149 6.52336 7.51724 6.52336 8.06896C6.52336 9.12643 6.97196 10.046 7.60747 10.5977C7.19626 10.5977 6.82243 10.4598 6.48598 10.2299V10.2759C6.48598 11.7471 7.34579 12.9425 8.46729 13.2184C8.24298 13.2644 8.05607 13.3103 7.83178 13.3103C7.68224 13.3103 7.53271 13.3103 7.38318 13.2644C7.68224 14.4598 8.61682 15.3333 9.66355 15.3792C8.84112 16.2069 7.75701 16.6667 6.59812 16.6667C6.41121 16.6667 6.18692 16.6667 6 16.6207C7.08412 17.4942 8.39252 18 9.7757 18C14.2991 18 16.7664 13.4023 16.7664 9.40229C16.7664 9.26436 16.7664 9.12643 16.7664 9.03448C17.2523 8.52873 17.7009 8.02299 18 7.42529Z" fill="black"/>
<rect x="0.5" y="0.5" width="23" height="23" rx="11.5" stroke="black"/>
</svg>
