<svg width="32" height="32" viewBox="0 0 32 32" fill="none" xmlns="http://www.w3.org/2000/svg">
<g clip-path="url(#clip0_4_2)">
<path d="M17.3333 26.584C20.0231 26.2418 22.4815 24.8882 24.2091 22.7984C25.9366 20.7086 26.8036 18.0394 26.6338 15.3333C26.4641 12.6272 25.2702 10.0873 23.295 8.22984C21.3198 6.37237 18.7114 5.3367 16 5.33334C13.2853 5.33132 10.6719 6.36446 8.69246 8.22224C6.71298 10.08 5.51633 12.6227 5.34633 15.3321C5.17633 18.0414 6.04579 20.7137 7.77753 22.8044C9.50927 24.895 11.973 26.2467 14.6667 26.584V18.6667H12V16H14.6667V13.7947C14.6667 12.012 14.8533 11.3653 15.2 10.7133C15.5415 10.0683 16.0693 9.54092 16.7147 9.2C17.224 8.92667 17.8573 8.76267 18.964 8.692C19.4027 8.664 19.9707 8.69867 20.668 8.79867V11.332H20C18.7773 11.332 18.272 11.3893 17.9707 11.5507C17.7909 11.6431 17.6445 11.7895 17.552 11.9693C17.392 12.2707 17.3333 12.5693 17.3333 13.7933V16H20.6667L20 18.6667H17.3333V26.584ZM16 29.3333C8.63601 29.3333 2.66667 23.364 2.66667 16C2.66667 8.63601 8.63601 2.66667 16 2.66667C23.364 2.66667 29.3333 8.63601 29.3333 16C29.3333 23.364 23.364 29.3333 16 29.3333Z" fill="black"/>
</g>
<defs>
<clipPath id="clip0_4_2">
<rect width="32" height="32" fill="white"/>
</clipPath>
</defs>
</svg>
